<mxfile host="app.diagrams.net" modified="2024-01-18T10:48:02.531Z" agent="Mozilla/5.0 (Windows NT 10.0; Win64; x64) AppleWebKit/537.36 (KHTML, like Gecko) Chrome/120.0.0.0 Safari/537.36 Edg/120.0.0.0" version="22.1.21" etag="poHQt_F6PnmnNjkkAVtY" type="github">
  <diagram name="Page-1" id="GYrx6ZV40ZIDQdUnCYU4">
    <mxGraphModel>
      <root>
        <mxCell id="0" />
        <mxCell id="1" parent="0" />
      </root>
    </mxGraphModel>
  </diagram>
</mxfile>
